<svg aria-hidden="true" style="position:absolute;width:0;height:0;overflow:hidden" xmlns="http://www.w3.org/2000/svg">
  <defs>
    <symbol id="icon-trash" viewBox="0 0 32 32">
      <path d="M4 8h24M25.334 8v18.667a2.67 2.67 0 0 1-2.667 2.667H9.334a2.668 2.668 0 0 1-2.667-2.667V8m4 0V5.333a2.668 2.668 0 0 1 2.667-2.667h5.333a2.67 2.67 0 0 1 2.667 2.667V8M13.333 14.667v8M18.667 14.667v8"/>
    </symbol>
    <symbol id="icon-pencil" viewBox="0 0 32 32">
      <path d="M4 23v5h5l14.747-14.747-5-5L4 23zM27.613 9.387c.52-.52.52-1.36 0-1.88l-3.12-3.12c-.52-.52-1.36-.52-1.88 0l-2.44 2.44 5 5 2.44-2.44z"/>
    </symbol>
    <symbol id="icon-calendar" viewBox="0 0 32 32">
      <path d="M25.333 5.334H6.666a2.667 2.667 0 0 0-2.667 2.667v18.667a2.667 2.667 0 0 0 2.667 2.667h18.667A2.667 2.667 0 0 0 28 26.668V8.001a2.667 2.667 0 0 0-2.667-2.667zM21.334 2.666v5.333M10.666 2.666v5.333M4 13.334h24"/>
    </symbol>
    <symbol id="icon-vector-down" viewBox="0 0 32 32">
      <path d="M9.867 10.667 8 12.534l8 8 8-8-1.867-1.867L16 16.8l-6.133-6.133z"/>
    </symbol>
    <symbol id="icon-category-other" viewBox="0 0 32 32">
      <path d="m19.255 18.565 2.1-3.63a.53.53 0 0 0-.12-.675l-2.22-1.74c.045-.33.075-.675.075-1.02s-.03-.69-.075-1.035l2.22-1.74a.53.53 0 0 0 .12-.675l-2.1-3.63a.53.53 0 0 0-.645-.225L16 5.245a7.713 7.713 0 0 0-1.77-1.035l-.39-2.775A.546.546 0 0 0 13.315 1h-4.2a.544.544 0 0 0-.525.45L8.2 4.225c-.63.27-1.23.615-1.77 1.035L3.82 4.21a.53.53 0 0 0-.645.225l-2.1 3.63a.53.53 0 0 0 .12.675l2.22 1.74c-.045.33-.075.675-.075 1.02s.03.69.075 1.035l-2.22 1.74a.53.53 0 0 0-.12.675l2.1 3.63a.53.53 0 0 0 .645.225l2.61-1.05c.54.42 1.125.765 1.77 1.035l.39 2.775c.045.24.27.435.525.435h4.2c.255 0 .48-.195.525-.45l.39-2.775c.63-.27 1.23-.615 1.77-1.035l2.61 1.05c.24.09.51 0 .645-.225zm-8.04-4.065c-1.65 0-3-1.35-3-3s1.35-3 3-3 3 1.35 3 3-1.35 3-3 3zM30.88 26.005l-1.44-1.11c.03-.21.06-.435.06-.66s-.015-.45-.06-.66l1.425-1.11a.343.343 0 0 0 .075-.435l-1.35-2.325c-.075-.15-.255-.195-.42-.15l-1.665.675a4.527 4.527 0 0 0-1.14-.66l-.255-1.77a.324.324 0 0 0-.315-.3H23.11c-.165 0-.315.12-.33.285l-.255 1.77c-.405.18-.795.39-1.14.66l-1.665-.675c-.15-.06-.33 0-.42.15l-1.35 2.325c-.075.15-.06.33.075.435l1.425 1.11c-.03.21-.045.435-.045.66s.015.45.045.66l-1.425 1.11a.343.343 0 0 0-.075.435l1.35 2.325c.075.15.255.195.42.15l1.665-.675c.345.27.72.495 1.14.66l.255 1.77c.03.165.165.285.33.285h2.685c.165 0 .315-.12.33-.285l.255-1.77c.405-.18.795-.39 1.125-.66l1.68.675c.15.06.33 0 .42-.15l1.35-2.325c.09-.135.045-.315-.075-.42zm-6.435.24a2.026 2.026 0 1 1 .002-4.052 2.026 2.026 0 0 1-.002 4.052z"/>
    </symbol>
    <symbol id="icon-category-house" viewBox="0 0 32 32">
      <path d="M26.5 12.95V5H22v3.9l-6-5.4L1 17h4.5v12H13v-9h6v9h7.5V17H31l-4.5-4.05zM13 14c0-1.65 1.35-3 3-3s3 1.35 3 3h-6z"/>
    </symbol>
    <symbol id="icon-category-transport" viewBox="0 0 32 32">
      <path d="M16 5.333H6.667c-2.213 0-4 1.787-4 4V20c0 2.213 1.787 4 4 4l-1.333 1.333v1.333h1.333l2.667-2.707 2.667.04v-6.667H5.334v-9.36l12 .027v2.667h2.667V9.333c0-2.213-1.787-4-4-4zM6.667 18.667C7.4 18.667 8 19.267 8 20s-.6 1.333-1.333 1.333-1.333-.6-1.333-1.333.6-1.333 1.333-1.333zm20.76-5.787c-.187-.533-.693-.88-1.293-.88h-9.587c-.613 0-1.107.347-1.307.88l-1.907 5.48.013 7.347c0 .507.413.96.92.96h.827c.507 0 .907-.507.907-1.013v-1.653h10.667v1.653c0 .507.413 1.013.92 1.013h.813c.507 0 .92-.453.92-.96l.013-1.827v-5.52l-1.907-5.48zm-10.88.453h9.587l1.373 4H15.174l1.373-4zm-.547 8c-.733 0-1.333-.6-1.333-1.333s.6-1.333 1.333-1.333 1.333.6 1.333 1.333-.6 1.333-1.333 1.333zm10.667 0c-.733 0-1.333-.6-1.333-1.333s.6-1.333 1.333-1.333S28 19.267 28 20s-.6 1.333-1.333 1.333z"/>
    </symbol>
    <symbol id="icon-category-spa" viewBox="0 0 32 32">
      <path d="M11.4 16c-1.427-.947-3-1.693-4.707-2.147 1.707.453 3.28 1.2 4.707 2.147zm13.907-2.147a15.605 15.605 0 0 0-4.76 2.187 15.652 15.652 0 0 1 4.76-2.187z"/>
      <path d="M20.653 12.84c-.24-3.72-1.747-7.347-4.573-10.173a16.247 16.247 0 0 0-4.733 10.173c1.707.907 3.28 2.08 4.653 3.507a19.158 19.158 0 0 1 4.653-3.507zm-8.666 3.533c-.187-.133-.4-.253-.6-.387.2.147.413.253.6.387zm8.56-.333c-.173.12-.36.213-.533.347.173-.133.36-.227.533-.347zM16 20.6c-2.867-4.373-7.76-7.267-13.333-7.267 0 7.093 4.48 13.093 10.707 15.32.84.307 1.72.533 2.627.68.907-.16 1.773-.387 2.627-.68 6.227-2.227 10.707-8.227 10.707-15.32-5.573 0-10.467 2.893-13.333 7.267z"/>
    </symbol>
    <symbol id="icon-category-beauty" viewBox="0 0 32 32">
      <path d="M28 7h-6V4c0-1.65-1.35-3-3-3h-6c-1.65 0-3 1.35-3 3v3H4c-1.65 0-3 1.35-3 3v18c0 1.65 1.35 3 3 3h24c1.65 0 3-1.35 3-3V10c0-1.65-1.35-3-3-3zM13 4h6v3h-6V4zm9 16.5h-4.5V25h-3v-4.5H10v-3h4.5V13h3v4.5H22v3z"/>
    </symbol>
    <symbol id="icon-category-cafes" viewBox="0 0 32 32">
      <path d="M14.667 12H12V2.667H9.333V12H6.666V2.667H3.999V12c0 2.827 2.213 5.12 5 5.293v12.04h3.333v-12.04c2.787-.173 5-2.467 5-5.293V2.667h-2.667V12zm6.666-4v10.667h3.333v10.667h3.333V2.667c-3.68 0-6.667 2.987-6.667 5.333z"/>
    </symbol>
    <symbol id="icon-category-clothing" viewBox="0 0 32 32">
      <path d="m28.8 24.267-11.467-8.6v-1.213a4.661 4.661 0 0 0-.24-9 4.681 4.681 0 0 0-5.76 4.547H14c0-1.107.893-2 2-2s2 .893 2 2c0 1.12-.92 2.027-2.04 2-.72-.013-1.293.6-1.293 1.32v2.347L3.2 24.268c-1.027.773-.48 2.4.8 2.4h24c1.28 0 1.827-1.627.8-2.4zM8 24l8-6 8 6H8z"/>
    </symbol>
    <symbol id="icon-category-products" viewBox="0 0 32 32">
      <path d="m28.067 23.413-23.96 1.253-.107-2 23.973-1.253.093 2zM28 25.973H4v2h24v-2zm1.333-19.306V16c0 1.467-1.2 2.667-2.667 2.667H5.333A2.675 2.675 0 0 1 2.666 16V6.667C2.666 5.2 3.866 4 5.333 4h21.333c1.467 0 2.667 1.2 2.667 2.667zM26.667 8c-2.24 0-4.053 1.307-4.28 2.973-.853-.973-3.64-3.64-8.72-3.64-6.227 0-9 4-9 4s2.773 4 9 4c5.08 0 7.867-2.667 8.72-3.64.227 1.667 2.04 2.973 4.28 2.973V7.999z"/>
    </symbol>
    <symbol id="icon-close" viewBox="0 0 32 32">
      <path d="m25.333 8.547-1.88-1.88L16 14.12 8.547 6.667l-1.88 1.88L14.12 16l-7.453 7.453 1.88 1.88L16 17.88l7.453 7.453 1.88-1.88L17.88 16l7.453-7.453z"/>
    </symbol>
    <symbol id="icon-log-out" viewBox="0 0 32 32">
      <path d="M12 28H6.667A2.668 2.668 0 0 1 4 25.333V6.666a2.668 2.668 0 0 1 2.667-2.667H12M21.333 22.667 28 16l-6.667-6.667M28 16H12"/>
    </symbol>
    <symbol id="icon-diagram" viewBox="0 0 32 32">
      <path d="M25.664 9.236v20.625h-2.219v-17.5h-6.336v17.5H14.89V15.486H8.554v14.375H6.335v-11.25H-.001v13.125h32v-22.5h-6.336zM4.461 29.86H1.875v-9.375h2.586v9.375zm8.555 0H10.43v-12.5h2.586v12.5zm8.554 0h-2.586V14.235h2.586V29.86zm8.555 0h-2.586V11.11h2.586v18.75zM27.62.264l-.987 1.594 2.008 1.243L.056 13.466l.639 1.763L29.23 4.883l-.861 2.193 1.745.685 1.88-4.789L27.62.264z"/>
    </symbol>
    <symbol id="icon-Validation-password" viewBox="0 0 32 32">
      <path d="M21.467 17.733 19.534 15.8c.2-1.044-.1-2.022-.9-2.933s-1.833-1.267-3.1-1.067l-1.933-1.933c.378-.178.761-.311 1.149-.4s.806-.133 1.251-.133c1.667 0 3.084.583 4.251 1.749s1.749 2.584 1.749 4.251c0 .444-.044.861-.133 1.251s-.222.772-.4 1.149zm4.266 4.2L23.8 20.066c.844-.644 1.595-1.35 2.251-2.117s1.216-1.638 1.683-2.616c-1.111-2.244-2.706-4.028-4.784-5.351s-4.394-1.983-6.949-1.983c-.644 0-1.278.044-1.9.133s-1.233.222-1.833.4l-2.067-2.067c.911-.378 1.844-.661 2.8-.851s1.956-.283 3-.283c3.356 0 6.344.928 8.967 2.783s4.522 4.262 5.7 7.217c-.511 1.311-1.183 2.528-2.016 3.651s-1.806 2.105-2.917 2.949zm.667 8.2L20.8 24.6c-.778.244-1.561.428-2.349.551s-1.606.183-2.451.183c-3.356 0-6.344-.928-8.967-2.783s-4.522-4.262-5.7-7.217C1.8 14.156 2.389 13.062 3.1 12.05s1.522-1.916 2.433-2.716L1.866 5.601l1.867-1.867 24.533 24.533-1.867 1.867zM7.4 11.2c-.644.578-1.233 1.211-1.767 1.9s-.989 1.433-1.367 2.233c1.111 2.244 2.705 4.028 4.783 5.349s4.395 1.984 6.951 1.984c.444 0 .878-.028 1.3-.083s.856-.117 1.3-.184l-1.2-1.267c-.244.067-.478.116-.7.149s-.456.051-.7.051c-1.667 0-3.084-.583-4.251-1.749S10 16.999 10 15.332c0-.244.016-.478.049-.7s.084-.456.151-.7l-2.8-2.733z"/>
    </symbol>
    <symbol id="icon-Logo-mobile" viewBox="0 0 32 32">
      <path d="M4.571 0C2.05 0 0 2.051 0 4.571s2.051 4.571 4.571 4.571c2.521 0 4.571-2.051 4.571-4.571S7.091 0 4.571 0z"/>
      <path d="M27.429 0c-2.521 0-4.571 2.051-4.571 4.571s2.051 4.571 4.571 4.571c2.521 0 4.572-2.051 4.572-4.571S29.95 0 27.429 0z"/>
      <path d="M16 0c-2.521 0-4.571 2.051-4.571 4.571S13.48 9.142 16 9.142c2.521 0 4.572-2.051 4.572-4.571S18.521 0 16 0zM27.429 22.857c-2.521 0-4.571 2.051-4.571 4.571S24.909 32 27.429 32s4.572-2.051 4.572-4.572a4.576 4.576 0 0 0-4.572-4.571z"/>
      <path d="M27.429 11.429c-2.521 0-4.571 2.051-4.571 4.571s2.051 4.571 4.571 4.571c2.521 0 4.572-2.051 4.572-4.571s-2.051-4.571-4.572-4.571z"/>
      <path d="M16 11.429c-2.521 0-4.571 2.051-4.571 4.571S13.48 20.571 16 20.571c2.521 0 4.572-2.051 4.572-4.571S18.521 11.429 16 11.429z"/>
    </symbol>
    <symbol id="icon-Logo-desktop-tablet" viewBox="0 0 32 32">
      <path d="M4.571 0C2.05 0 0 2.051 0 4.571s2.051 4.571 4.571 4.571c2.521 0 4.571-2.051 4.571-4.571S7.091 0 4.571 0z"/>
      <path d="M27.428 0c-2.521 0-4.571 2.051-4.571 4.571s2.051 4.571 4.571 4.571c2.521 0 4.571-2.051 4.571-4.571S29.948 0 27.428 0z"/>
      <path d="M16 0c-2.521 0-4.571 2.051-4.571 4.571S13.48 9.142 16 9.142c2.521 0 4.571-2.051 4.571-4.571S18.52 0 16 0zM27.428 22.857c-2.521 0-4.571 2.051-4.571 4.571s2.051 4.571 4.571 4.571c2.521 0 4.571-2.051 4.571-4.571s-2.051-4.571-4.571-4.571z"/>
      <path d="M27.428 11.428c-2.521 0-4.571 2.051-4.571 4.571s2.051 4.571 4.571 4.571c2.521 0 4.571-2.051 4.571-4.571s-2.051-4.571-4.571-4.571z"/>
      <path d="M16 11.428c-2.521 0-4.571 2.051-4.571 4.571S13.48 20.57 16 20.57c2.521 0 4.571-2.051 4.571-4.571S18.52 11.428 16 11.428z"/>
    </symbol>
    <symbol id="icon-photo-mobile-1" viewBox="0 0 32 32">
      <path d="M28.19 11.428v-4.58c0 0 0 0 0 0 0-1.68-1.359-3.042-3.038-3.048l-4.581-0.013M28.19 20.572v4.572c-0 1.683-1.364 3.047-3.047 3.047h-4.572M11.428 3.787l-4.58 0.015c-1.679 0.005-3.039 1.368-3.039 3.048 0 0 0 0 0 0v0 4.579M11.428 28.19h-4.572c-1.683 0-3.047-1.364-3.048-3.047v-4.572"></path>
      <path d="M16 18.75c0.625 0 1.156-0.219 1.594-0.656s0.657-0.969 0.657-1.594c0-0.625-0.219-1.157-0.656-1.594s-0.969-0.656-1.594-0.656-1.156 0.218-1.594 0.656c-0.438 0.437-0.657 0.969-0.657 1.594s0.219 1.156 0.656 1.594c0.438 0.438 0.969 0.657 1.594 0.657zM12 20.5c-0.275 0-0.51-0.098-0.706-0.293-0.182-0.175-0.294-0.421-0.294-0.693 0-0.005 0-0.009 0-0.014v0.001-6c0-0.275 0.099-0.511 0.294-0.706 0.196-0.196 0.431-0.294 0.706-0.294h1.574l0.925-1h3l0.925 1h1.575c0.275 0 0.511 0.098 0.707 0.294 0.196 0.195 0.294 0.431 0.294 0.706v6c0 0.275-0.098 0.51-0.294 0.707-0.175 0.181-0.421 0.293-0.692 0.293-0.005 0-0.010-0-0.014-0h-7.999z"></path>
    </symbol>
    <symbol id="icon-photo-desktop-tablet-1" viewBox="0 0 32 32">
      <path d="M28.191 11.428v-4.58c0-0 0-0 0-0 0-1.68-1.359-3.042-3.038-3.047l-4.581-0.014M28.191 20.571v4.572c0 1.683-1.364 3.047-3.047 3.047v0h-4.572M11.428 3.787l-4.58 0.015c-1.68 0.005-3.039 1.367-3.039 3.047 0 0 0 0.001 0 0.001v-0 4.579M11.428 28.191h-4.572c-1.683 0-3.047-1.364-3.047-3.047v0-4.572"></path>
      <path d="M16 18.75c0.625 0 1.157-0.218 1.594-0.656s0.656-0.969 0.656-1.594c0-0.625-0.218-1.156-0.656-1.594s-0.969-0.656-1.594-0.656c-0.625 0-1.156 0.219-1.594 0.656s-0.656 0.969-0.656 1.594c0 0.625 0.219 1.157 0.656 1.594s0.969 0.656 1.594 0.656zM12 20.5c-0.275 0-0.51-0.098-0.706-0.294-0.181-0.175-0.294-0.421-0.294-0.693 0-0.005 0-0.009 0-0.014v0.001-6c0-0.275 0.098-0.51 0.294-0.706 0.175-0.181 0.42-0.294 0.692-0.294 0.005 0 0.010 0 0.015 0h1.574l0.925-1h3l0.925 1h1.575c0.275 0 0.511 0.098 0.706 0.294s0.294 0.431 0.294 0.706v6c0 0.275-0.098 0.511-0.294 0.706-0.175 0.181-0.421 0.294-0.693 0.294-0.005 0-0.010-0-0.015-0h-7.999z"></path>
    </symbol>
  </defs>
</svg>
