<svg xmlns="http://www.w3.org/2000/svg" width="26" height="26" fill="none">
  <g clip-path="url(#a)">
    <path fill="#3A6AF5" d="M3.714 0A3.719 3.719 0 0 0 0 3.714 3.719 3.719 0 0 0 3.714 7.43 3.719 3.719 0 0 0 7.43 3.714 3.719 3.719 0 0 0 3.714 0Z"/>
    <path fill="#F3F3F3" d="M22.286 0a3.718 3.718 0 0 0-3.715 3.714 3.718 3.718 0 0 0 3.715 3.715A3.719 3.719 0 0 0 26 3.714 3.719 3.719 0 0 0 22.286 0Z"/>
    <path fill="#3A6AF5" d="M13 0a3.719 3.719 0 0 0-3.714 3.714A3.719 3.719 0 0 0 13 7.43a3.718 3.718 0 0 0 3.714-3.715A3.718 3.718 0 0 0 13 0ZM22.286 18.571a3.718 3.718 0 0 0-3.715 3.715A3.719 3.719 0 0 0 22.286 26 3.719 3.719 0 0 0 26 22.286a3.719 3.719 0 0 0-3.714-3.715Z"/>
    <path fill="#F3F3F3" d="M22.286 9.286A3.719 3.719 0 0 0 18.57 13a3.718 3.718 0 0 0 3.715 3.714A3.719 3.719 0 0 0 26 13a3.719 3.719 0 0 0-3.714-3.714Z"/>
    <path fill="#3A6AF5" d="M13 9.286A3.719 3.719 0 0 0 9.286 13 3.719 3.719 0 0 0 13 16.714 3.718 3.718 0 0 0 16.714 13 3.719 3.719 0 0 0 13 9.286Z"/>
  </g>
  <defs>
    <clipPath id="a">
      <path fill="#fff" d="M0 0h26v26H0z"/>
    </clipPath>
  </defs>
</svg>
